<svg width="64" height="64" viewBox="0 0 64 64" fill="none" xmlns="http://www.w3.org/2000/svg">
<rect x="2" y="5" width="60" height="54" fill="#CF3131"/>
<rect x="5" y="2" width="54" height="3" fill="#CF3131"/>
<rect x="5" y="59" width="54" height="3" fill="#CF3131"/>
<rect x="11" y="27" width="41" height="25" fill="#DCB78A"/>
<rect x="7" y="12" width="50" height="15" fill="#161616"/>
<rect x="7" y="12" width="50" height="15" fill="#161616"/>
<rect x="15" y="41" width="33" height="16" fill="#161616"/>
<rect x="15" y="41" width="33" height="16" fill="#4F2107"/>
<rect x="12" y="7" width="40" height="7" fill="#161616"/>
<rect x="12" y="7" width="40" height="7" fill="#161616"/>
<rect x="33" y="30" width="15" height="5" fill="#161616"/>
<rect x="33" y="30" width="15" height="5" fill="#6D422A"/>
<rect x="15" y="30" width="15" height="5" fill="#161616"/>
<rect x="15" y="30" width="15" height="5" fill="#6D422A"/>
<path d="M11 51H15V52H11V51Z" fill="black" fill-opacity="0.15"/>
<path d="M11 27H12V51H11V27Z" fill="black" fill-opacity="0.15"/>
<path d="M51 27H52V51H51V27Z" fill="black" fill-opacity="0.15"/>
<path d="M48 51H52V52H48V51Z" fill="black" fill-opacity="0.15"/>
</svg>
